<?xml version="1.0" encoding="utf-8"?>
<!-- Generator: Adobe Illustrator 24.0.1, SVG Export Plug-In . SVG Version: 6.00 Build 0)  -->
<svg version="1.1" id="Layer_1" xmlns="http://www.w3.org/2000/svg" xmlns:xlink="http://www.w3.org/1999/xlink" x="0px" y="0px"
	 viewBox="0 0 1366 768" style="enable-background:new 0 0 1366 768;" xml:space="preserve">
<style type="text/css">
	.st0{opacity:0.2;fill:url(#SVGID_1_);enable-background:new    ;}
	.st1{fill:#F2C94C;}
	.st2{opacity:0.4;fill:#98C3E8;enable-background:new    ;}
	.st3{opacity:0.2;fill:#98C3E8;enable-background:new    ;}
	.st4{fill:#98C3E8;filter:url(#Adobe_OpacityMaskFilter);}
	.st5{mask:url(#mask0_1_);}
	.st6{fill:url(#SVGID_2_);}
	.st7{fill:none;stroke:#FFFFFF;stroke-width:15;stroke-opacity:0.2;}
	.st8{fill-rule:evenodd;clip-rule:evenodd;fill:#FFFFFF;fill-opacity:0.6;}
	.st9{fill:none;stroke:#FFFFFF;stroke-width:8;stroke-opacity:0.4;}
	.st10{fill:#FFFFFF;}
	.st11{fill:#5A98D0;}
	.st12{fill:#56CCF2;}
	.st13{fill:#F58A8A;}
	.st14{fill:#6FCF97;}
	.st15{fill:url(#SVGID_3_);}
	.st16{fill:url(#SVGID_4_);}
	.st17{fill:url(#SVGID_5_);}
	.st18{fill:url(#SVGID_6_);}
	.st19{fill:#F2994A;}
	.st20{fill:url(#SVGID_7_);}
	.st21{opacity:0.2;enable-background:new    ;}
	.st22{fill:#D06262;}
	.st23{fill:#1F3F68;}
	.st24{fill-opacity:0.2;}
	.st25{fill:#316099;}
	.st26{fill:#98C3E8;}
	.st27{opacity:0.8;fill:url(#SVGID_8_);enable-background:new    ;}
	.st28{fill:#FA9595;}
	.st29{fill:#FDF397;}
	.st30{fill:#C1FEBB;}
	.st31{opacity:0.4;fill-rule:evenodd;clip-rule:evenodd;fill:#5A98D0;enable-background:new    ;}
	.st32{opacity:0.1;fill-rule:evenodd;clip-rule:evenodd;enable-background:new    ;}
	.st33{fill:#EB5757;}
	.st34{clip-path:url(#SVGID_10_);}
	.st35{fill:none;stroke:#000000;stroke-width:2;stroke-linecap:round;stroke-linejoin:round;stroke-opacity:0.1;}
	.st36{fill:none;stroke:#FFFFFF;stroke-width:2;stroke-linecap:round;stroke-linejoin:round;}
</style>
<linearGradient id="SVGID_1_" gradientUnits="userSpaceOnUse" x1="728" y1="-43.0781" x2="728" y2="195.9219" gradientTransform="matrix(1 0 0 -1 0 768)">
	<stop  offset="0.2839" style="stop-color:#98C3E8"/>
	<stop  offset="1" style="stop-color:#98C3E8;stop-opacity:0"/>
</linearGradient>
<rect x="-106.3" y="43.1" class="st0" width="1668.5" height="768"/>
<path class="st1" d="M816.5,473.5c-2,0-4.2-1.7-5-2.5l1.5-2c0-1,0.1-3.1,0.5-3.5s1.2-0.5,1.5-0.5l-0.5,1.5c0.7-1.1,1-1.7,1.5-3
	c2.2,0.4,3.2,1,4.5,3l-0.5,2l-2.5,2.5C817.3,471.3,816.9,472.3,816.5,473.5z"/>
<path class="st2" d="M1279.6,164.4C1134.8,95.5,1071,283.9,971.1,314.9c-99.7,45.3-195.9-7.7-255.3,37.8
	C621.7,424.8,663,551,723.3,604c86.4,76.1,240,48.7,398.7-33.6C1320.9,467.3,1406.6,224.8,1279.6,164.4z"/>
<path class="st3" d="M798.5,239.5c5,12.5-10,32-31.5,38.5c-18.5,5.6-36.5,5-41.5-8c-4.4-11.5,9.5-24,25.5-30.5
	S793.5,227,798.5,239.5z"/>
<path class="st3" d="M962,214c-3.9-9.9,9.8-33.1,26.8-38.2c14.6-4.4,28.3-14.6,32.2-4.3c3.4,9.1-7.1,29.8-19.7,34.9
	C988.6,211.5,965.9,223.9,962,214z"/>
<path class="st3" d="M950.8,706.2c-3.9-9.9,8-25.3,25-30.4c14.6-4.4,28.8-3.8,32.7,6.5c3.4,9.1-7.6,19-20.2,24.1
	C975.6,711.5,954.7,716.2,950.8,706.2z"/>
<path class="st3" d="M1126.6,655.5c-8.1-19,17.7-61.3,53-71c30.4-8.3,79.4,8.7,87.5,28.5c7.2,17.5-39.7,14.6-66,24.3
	C1174.8,647.1,1134.7,674.6,1126.6,655.5z"/>
<defs>
	<filter id="Adobe_OpacityMaskFilter" filterUnits="userSpaceOnUse" x="569.9" y="72.4" width="834.6" height="681.5">
		<feColorMatrix  type="matrix" values="1 0 0 0 0  0 1 0 0 0  0 0 1 0 0  0 0 0 1 0"/>
	</filter>
</defs>
<mask maskUnits="userSpaceOnUse" x="569.9" y="72.4" width="834.6" height="681.5" id="mask0_1_">
	<path class="st4" d="M1262,165.9C1121.4,103.9,1065,286.5,970.1,319c-94.4,46.3-188-1.9-243.8,43.4
		C638,434.3,680.9,554.2,740,603.5c84.8,70.7,231.3,40.1,381.4-43.4C1309.4,455.5,1385.2,220.4,1262,165.9z"/>
</mask>
<g class="st5">
	
		<linearGradient id="SVGID_2_" gradientUnits="userSpaceOnUse" x1="994.4058" y1="743.3608" x2="956.5779" y2="72.5351" gradientTransform="matrix(1 0 0 -1 0 768)">
		<stop  offset="0" style="stop-color:#D1ECFF"/>
		<stop  offset="1" style="stop-color:#1070B1"/>
	</linearGradient>
	<rect x="569.9" y="72.4" class="st6" width="805.2" height="681.5"/>
	<path class="st7" d="M671.5,289.5C745.3,326.7,828,430.9,828,480.7c0,61.2-129.8,155-189.3,208.2l508,32.8
		c-18.1-81-63.8-261-36-301c36-51.7,181.5-39.1,263.1-29.7l22.1-230.3c-39.8,16.6-128.7,64.4-177.3,51.7c-45-11.7-131.3-62-167.8-94
		"/>
	<path class="st7" d="M861.4,232.7c20.2,105.2,75.1,298,133.1,227.8c72.6-87.7,130-201.3,184.3-126.2
		c43.4,60.1,107.3,178.6,133.8,230.3"/>
	<path class="st8" d="M1089,294c0,4.4-3.6,8-8,8s-8-3.6-8-8s3.6-8,8-8S1089,289.6,1089,294z M758,467c4.4,0,8-3.6,8-8s-3.6-8-8-8
		s-8,3.6-8,8S753.6,467,758,467z M932,569c4.4,0,8-3.6,8-8s-3.6-8-8-8s-8,3.6-8,8S927.6,569,932,569z M1206,451c4.4,0,8-3.6,8-8
		s-3.6-8-8-8s-8,3.6-8,8S1201.6,451,1206,451z"/>
	<circle class="st9" cx="728" cy="546" r="18"/>
	<circle class="st9" cx="1308" cy="269" r="18"/>
	<circle class="st9" cx="1058" cy="502" r="18"/>
</g>
<g>
	<path class="st10" d="M1118,223h68c5.5,0,10,4.5,10,10v68c0,5.5-4.5,10-10,10h-68c-5.5,0-10-4.5-10-10v-68
		C1108,227.5,1112.5,223,1118,223z"/>
</g>
<path class="st11" d="M1148,283v-12h8v12h10v-16h6l-20-18l-20,18h6v16H1148z"/>
<g>
	<path class="st12" d="M1095.4,133H1068c-3.8,0-6.8,3-6.8,6.8V167c0,3.8,3.1,6.8,6.8,6.8h27.4c3.8,0,6.9-3,6.9-6.8v-27.2
		C1102.3,136,1099.2,133,1095.4,133z"/>
</g>
<path class="st10" d="M1092,152h-4.2l3.2-3.2l-1.4-1.4l-4.7,4.7h-2v-2l4.7-4.7l-1.4-1.4l-3.2,3.2V143h-2v4.2l-3.2-3.2l-1.4,1.4
	l4.7,4.7v2h-2l-4.7-4.7l-1.4,1.4l3.2,3.2h-4.2v2h4.2l-3.2,3.2l1.4,1.4l4.7-4.7h2v2l-4.7,4.7l1.4,1.4l3.2-3.2v4.2h2v-4.2l3.2,3.2
	l1.4-1.4l-4.7-4.7v-2h2l4.7,4.7l1.4-1.4l-3.2-3.2h4.2V152z"/>
<g>
	<path class="st1" d="M1269.3,236h-27.4c-3.8,0-6.8,3-6.8,6.8V270c0,3.8,3.1,6.8,6.8,6.8h27.4c3.8,0,6.9-3,6.9-6.8v-27.2
		C1276.1,239,1273.1,236,1269.3,236z"/>
</g>
<path class="st10" d="M1265,253c0-5-4-9-9-9s-9,4-9,9c0,3.1,1.6,5.9,4,7.5v2.5c0,1.3,0.8,2.4,2,2.8v0.2c0,1.7,1.3,3,3,3s3-1.3,3-3
	v-0.2c1.2-0.4,2-1.5,2-2.8v-2.5C1263.4,258.9,1265,256.1,1265,253z M1249,253c0-3.9,3.1-7,7-7s7,3.1,7,7c0,3.5-2.6,6.4-6,6.9v-2.5
	l1.7-1.7c0.4-0.4,0.4-1,0-1.4c-0.4-0.4-1-0.4-1.4,0l-1.3,1.3l-1.3-1.3c-0.4-0.4-1-0.4-1.4,0c-0.4,0.4-0.4,1,0,1.4l1.7,1.7v2.5
	C1251.6,259.4,1249,256.5,1249,253z M1256,267c-0.6,0-1-0.4-1-1h2C1257,266.6,1256.6,267,1256,267z M1259,263c0,0.6-0.4,1-1,1h-4
	c-0.6,0-1-0.4-1-1v-1.5c0.9,0.3,1.9,0.5,3,0.5s2.1-0.2,3-0.5V263z"/>
<g>
	<path class="st13" d="M1049.3,236h-27.4c-3.8,0-6.8,3-6.8,6.8V270c0,3.8,3.1,6.8,6.8,6.8h27.4c3.8,0,6.9-3,6.9-6.8v-27.2
		C1056.1,239,1053.1,236,1049.3,236z"/>
</g>
<path class="st10" d="M1042,252h-1v-2c0-2.8-2.2-5-5-5s-5,2.2-5,5v2h-1c-1.1,0-2,0.9-2,2v10c0,1.1,0.9,2,2,2h12c1.1,0,2-0.9,2-2v-10
	C1044,252.9,1043.1,252,1042,252z M1036,261c-1.1,0-2-0.9-2-2s0.9-2,2-2s2,0.9,2,2S1037.1,261,1036,261z M1039.1,252h-6.2v-2
	c0-1.7,1.4-3.1,3.1-3.1s3.1,1.4,3.1,3.1V252z"/>
<g>
	<path class="st14" d="M1223.3,133h-27.4c-3.8,0-6.8,3-6.8,6.8V167c0,3.8,3.1,6.8,6.8,6.8h27.4c3.8,0,6.9-3,6.9-6.8v-27.2
		C1230.1,136,1227.1,133,1223.3,133z"/>
</g>
<path class="st10" d="M1215.3,147.9H1199v10.2h16.3V147.9z"/>
<path class="st10" d="M1219.7,149.9l-3.6,1.5v3.2l3.6,1.5h1.3v-6.2H1219.7z"/>
<linearGradient id="SVGID_3_" gradientUnits="userSpaceOnUse" x1="1209.871" y1="461.8789" x2="1158.0909" y2="428.0599" gradientTransform="matrix(1 0 0 -1 0 768)">
	<stop  offset="0" style="stop-color:#FFF8E1"/>
	<stop  offset="1" style="stop-color:#FFCC80"/>
</linearGradient>
<path class="st15" d="M1155.4,306c-1.1,4.4,0.4,6.9,1.6,7.5c2.4,1.2,5,2.8,5,2.8s16.4,28.1,21.2,30.2c5.5,2.3,18.3,3.6,18.3,3.6
	l5.6-11.1c0,0-12.7-2.8-18.3-4c-3.7-0.8-20.2-18.7-20.2-18.7l3.2-5.6h-6c-4.4-3.2-6.7-9.7-6.7-9.7S1156.2,303,1155.4,306z"/>
<linearGradient id="SVGID_4_" gradientUnits="userSpaceOnUse" x1="1240.98" y1="437.7595" x2="1240.98" y2="360.5" gradientTransform="matrix(1 0 0 -1 0 768)">
	<stop  offset="0" style="stop-color:#AF6CED"/>
	<stop  offset="1" style="stop-color:#5E199D"/>
</linearGradient>
<path class="st16" d="M1220.5,356.5c-2-2-13.5-5.2-19-6.5l5.5-11c2.2,0,8.5-0.5,16.5-2.5c10-2.5,13.5-11.5,25-2
	c9.2,7.6,25.2,40.8,32,56.5c-10.8,10.2-17.9,13.6-32,16.5c-0.8-1.7-3.3-7.3-6.5-16.5c-4-11.5-16.5-11.5-18.5-15.5
	S1223,359,1220.5,356.5z"/>
<linearGradient id="SVGID_5_" gradientUnits="userSpaceOnUse" x1="1288.73" y1="377.5" x2="1288.73" y2="267.5" gradientTransform="matrix(1 0 0 -1 0 768)">
	<stop  offset="0" style="stop-color:#EB5757"/>
	<stop  offset="1" style="stop-color:#872727"/>
</linearGradient>
<path class="st17" d="M1256.5,470c-3.6-8-3.7-46-5-63.5c12.2-2.4,18.6-5.5,29-16c0,0,17,8,16,26.5s6.5,27.8,11,34
	c4,5.5,13.5,17.2,18.5,25l-5,9.5c-5.5-5.8-21.6-17.7-30-24.5s-11.2-23.8-12.5-33c-0.8,9.7-5,27.4-3,33s23.5,22.5,32,31l-3,8.5
	C1290,493.7,1260.1,478,1256.5,470z"/>
<linearGradient id="SVGID_6_" gradientUnits="userSpaceOnUse" x1="1230.9758" y1="447.2447" x2="1212.8558" y2="439.6357" gradientTransform="matrix(1 0 0 -1 0 768)">
	<stop  offset="0" style="stop-color:#FFF8E1"/>
	<stop  offset="1" style="stop-color:#FFCC80"/>
</linearGradient>
<path class="st18" d="M1214.5,322.5c0.4-1.6-0.2-6.3,0.5-8c4.8,0.8,7.5,4.2,8.5,5.5c1-0.2,2.4-0.6,3,0.5c0.5,1,0,3-1.5,4.5l3.5,9.5
	c-1.7,1.1-2.7,1.4-4.5,2c1-2.5,0.5-4.5,0-5.5c-3.6,2.8-5,2.7-6.5,2.5l-1.5-6.5l-2.5,0.5C1214,326.7,1214.1,324.1,1214.5,322.5z"/>
<path class="st19" d="M1223.5,320c-2-2.8-6.8-4.8-9-5.5c-4-3-2-9.5,7.5-12.5s13.5,5,15.5,7s3,8.5,12,12.5s8.5-1,14-1s8,3.5,7,6.5
	s-1.5,6.5,4.5,10.5s0.5,9.5,0,15.5s-8.5,3-17,3s-7,0-8.5-5.5s-4-7.5-7-9s-10-0.5-11.5-2c-1.2-1.2-4.5-10.2-6-14.5
	c0.7-1,1.9-3.3,1.5-4.5S1224.3,319.7,1223.5,320z"/>
<linearGradient id="SVGID_7_" gradientUnits="userSpaceOnUse" x1="1225.8625" y1="397.4805" x2="1214.1825" y2="376.2014" gradientTransform="matrix(1 0 0 -1 0 768)">
	<stop  offset="0" style="stop-color:#FFF8E1"/>
	<stop  offset="1" style="stop-color:#FFCC80"/>
</linearGradient>
<path class="st20" d="M1204.5,380.5l24-1.5c2.8,0.4,7.5,3.8,9.5,5.5c-0.7,1.5-2.6,4.5-5,4.5s-20-3-28.5-4.5h-2V377L1204.5,380.5z"/>
<path class="st1" d="M1202.5,388v-17h-8.5v17H1202.5z"/>
<path class="st11" d="M1321,514.5c-2.4-0.4-12.2-9.7-16.5-14l3-8.5c2,0.8,6.2,2.3,7,3.5C1315.5,497,1324,515,1321,514.5z"/>
<path class="st11" d="M1333,503.5c-1.2-2-8.5-11.7-12-18l5-9.5c2.3,2,2.5,2,5,5.5C1332.1,483.1,1334.5,506,1333,503.5z"/>
<path class="st21" d="M1281.5,413.5l-3,15c0.5,5.5,3.5,19,8.5,28.5C1281,438,1283,423.8,1281.5,413.5z"/>
<path class="st22" d="M851,638l-1.5-5l8-1.5c3.8,2,11.2,6.4,10,8C867.1,640.3,856.3,638.8,851,638z"/>
<path class="st22" d="M810.5,591l4.5,7.5c-0.3,5.2-1.4,15.3-3,14.5s-6.7-13.7-9-20L810.5,591z"/>
<path class="st23" d="M784.3,546c-5.3-5.5-10.2-16-11.9-20.5c5.1-2.5,16.5-8.1,21.1-11c4.6-2.8,13.2-9.2,17-12.1
	c2.2,2,8.6,6.8,16.5,10.5c20.5,9.7,32.2,22.1,36.2,33.3c3.2,8.9-10,22.2-17.5,27.7c-4.4-7.4-7-10.4-12.2-17.5l1.8-8.2l-10.3-3.1
	c1.5,2,6.5,8.7,14.3,19.3c14.1,17.6,18.9,47.6,19.6,60.5c-2.6,0.6-9.1,1.6-13.9,1.3c-0.6-6.2-8.4-20.1-15.8-32.3
	c-1.5,1.8-3.6,4-4.8,4.1c-6.2-1.8-8.1-10-8.3-13.8l4.7-3.9c-0.6-1-1.2-2-1.8-2.9C811.2,565.1,791,552.9,784.3,546z"/>
<path class="st10" d="M812.3,501.2c-14.5,11.2-44.6,31.3-48.7,22.1c-5.1-11.6-4.1-11.7-6.9-14.9c-2.8-3.3-3.5-10.7-4.8-13.6
	c-0.6-1.5-5.8-7.8-9.9-15.7c0,0-0.1-0.2-0.3-0.6c-2.9-5.7-5.2-12.1-4.8-18c0.3-8.6,6.8-14.1,6.8-14.1c3.9-4.1,7.5-4.8,8.8-4.7l0,0
	c3,2.1,7.5,5.1,9.1,5c1.6-0.1,3.9-3.2,5.4-4.7c7.6,0.8,9.9-1.1,15.9-0.3c7.3,1,27.1,11.3,42.6-16.2c1.5,0.4,5,1.7,7.5,1.5
	c-8.5,25-16,32.8-23,35.2c-5.4,1.9-9.6,2.4-12.9,2.4c-0.6,3.3-1.4,8.6-2.8,14.1c2.8,5.1,5.7,9.8,8.1,11.9
	C808.4,496.1,815.2,499.1,812.3,501.2z"/>
<path class="st24" d="M812.1,530.9l13.4,14.8l9.8,2.6l-0.6,4.6c2.2-2.9,5.1-9.8-1.3-14.4C826.9,533.8,816.5,531.5,812.1,530.9z"/>
<path class="st24" d="M820.6,580.3l8.3,13.8l-1.4,1.6c-1.2-2.4-4.4-4.6-7.2-6.9c-2.2-1.8-2.6-4.9-2.6-6.3L820.6,580.3z"/>
<path class="st24" d="M782.1,505c-14.2-1.5-31.5-16.4-38.3-23.6c15.9,14.1,34.3,17.9,40.1,15.9c4.7-1.6,8.3-13.8,10.1-18.8l3.8,6.5
	C798.5,492.3,796.3,506.5,782.1,505z"/>
<path class="st24" d="M777,476.9c-3.1,0.6-11.3-6.3-14.9-9.7c13.5,9.8,13.5,4.8,30.5-7.2C791.8,461.1,784.5,475.5,777,476.9z"/>
<path class="st19" d="M797.5,462.5c-1.7-0.3-3.2-0.9-5-2.5l1.5-3.5c-0.2-0.8-0.4-2.7,0-3.5s2-1.7,2.5-2l-0.5,2.5l2.5-3l4,3.5
	l-0.5,3.5l-3,1.5L797.5,462.5z"/>
<path class="st19" d="M834,422l-1,5c-1.6,0.4-5.8-0.8-7.5-1.5c0.5-1.5,2.1-5.5,2.5-7.5s4.2-4.2,6-5h2l-2,3.5V422z"/>
<path class="st25" d="M750,431.5c0.8,1.6,3,5,4,6.5c0.7-1.3,1.6-4.3,0-5.5s-3-3.2-3.5-4c0.5-0.3,1.8-1,3-1c-0.8-6,3.3-8.2,5.5-8.5
	l8.5-0.5l0.5,2.5c3.2-3,8.9-9.5,6.5-11.5c-3-2.5-12,4-18,4s-8.5,3-10,6S749,429.5,750,431.5z"/>
<path class="st19" d="M761.5,447c-1.6,0-6.2-3.2-9-5c1.3-0.7,2-3.2,2-4c0-1,1-5,0-5.5s-4-2.5-4-3.5c0-0.8,2-1,3-1
	c-0.3-1.7-0.4-5.5,2-7.5s9-2.2,12-2c0.2,0.7,0.8,3.5,2,9.5s-1.5,8.8-3,9.5l0.5,4.5C765.8,443.5,763.1,447,761.5,447z"/>
<path class="st26" d="M857.5,631.5l-0.5-6c-3.5,0.9-5.6,1.1-9.5,1l2,6.5L857.5,631.5z"/>
<path class="st26" d="M815,598.5l6-2c-2.7-3.1-3.6-4.8-4.5-8l-6,2.5L815,598.5z"/>
<linearGradient id="SVGID_8_" gradientUnits="userSpaceOnUse" x1="847.1365" y1="336.3862" x2="1152.6334" y2="302.8862" gradientTransform="matrix(1 0 0 -1 0 768)">
	<stop  offset="0.1271" style="stop-color:#FFFFFF"/>
	<stop  offset="0.9723" style="stop-color:#FFFFFF;stop-opacity:0.8"/>
</linearGradient>
<path class="st27" d="M847,351h256.3c2.8,0,5,2.2,5,5v179.3c0,2.8-2.2,5-5,5H847c-2.8,0-5-2.2-5-5V356C842,353.2,844.2,351,847,351z
	"/>
<path class="st10" d="M842,356c0-2.8,2.2-5,5-5h72v189.3h-72c-2.8,0-5-2.2-5-5V356z"/>
<circle class="st28" cx="854" cy="363" r="4"/>
<circle class="st29" cx="867" cy="363" r="4"/>
<circle class="st30" cx="879" cy="363" r="4"/>
<path class="st31" d="M851,457h58v7h-58V457z M851,471h58v7h-58V471z M890,487h-39v7h39V487z"/>
<path class="st32" d="M1028,376h58v7h-58V376z M1028,390h58v7h-58V390z M1067,406h-39v7h39V406z"/>
<g>
	<path class="st12" d="M839,377h71c2.8,0,5,2.2,5,5v40c0,2.8-2.2,5-5,5h-71c-2.8,0-5-2.2-5-5v-40C834,379.2,836.2,377,839,377z"/>
</g>
<path class="st10" d="M861.3,397.8h8.3l0.2,3.2h-0.3c-0.4-1.1-0.9-1.8-1.4-2.2c-0.5-0.4-1.2-0.6-2.2-0.6h-0.6v4.9h0.5
	c0.5,0,0.9-0.2,1.3-0.6c0.3-0.4,0.6-0.9,0.7-1.5h0.2v4.7h-0.3c-0.2-0.8-0.5-1.4-0.8-1.7c-0.3-0.3-0.8-0.5-1.3-0.5h-0.4v5.1h0.6
	c1,0,1.8-0.3,2.5-0.9c0.7-0.6,1.2-1.3,1.4-2.3h0.3l-0.1,3.5h-8.8v-0.4h0.9v-10.5h-0.9V397.8z M881.5,397.8l0.2,4h-0.3
	c-0.5-1.4-0.9-2.4-1.2-2.9c-0.4-0.5-0.9-0.8-1.6-0.8h-0.2v10.5h1.4v0.3h-5.8v-0.3h1.4v-10.5H875c-0.7,0-1.2,0.3-1.6,0.8
	c-0.4,0.5-0.8,1.5-1.2,2.9h-0.3l0.2-4H881.5z M883.4,397.8h4.9v0.3h-0.9v10.6h0.9v0.3h-4.9v-0.3h0.9v-10.6h-0.9V397.8z"/>
<path class="st33" d="M941,369h69c2.8,0,5,2.2,5,5v67c0,2.8-2.2,5-5,5h-69c-2.8,0-5-2.2-5-5v-67C936,371.2,938.2,369,941,369z"/>
<g>
	<defs>
		<rect id="SVGID_9_" x="951" y="384" width="48" height="48"/>
	</defs>
	<clipPath id="SVGID_10_">
		<use xlink:href="#SVGID_9_"  style="overflow:visible;"/>
	</clipPath>
	<g class="st34">
		<path class="st10" d="M967,394v28l22-14L967,394z"/>
	</g>
</g>
<g>
	<path class="st14" d="M941,459h144c2.8,0,5,2.2,5,5v53c0,2.8-2.2,5-5,5H941c-2.8,0-5-2.2-5-5v-53C936,461.2,938.2,459,941,459z"/>
</g>
<path class="st35" d="M949.5,504c9.5-6.5,13.5-15,31.5-15s19.6,10,30.5,10c13,0,25.5-19.5,39.5-19.5s17.5,10,25,10.5"/>
<path class="st36" d="M949,504.5c9.5-6.5,12-25.5,30-25.5s22.1,16.5,33,16.5c13,0,24.5-27,38.5-27s18.5,21,26,21.5"/>
</svg>
